<?xml version="1.0" standalone="no"?>
<!DOCTYPE svg PUBLIC "-//W3C//DTD SVG 20010904//EN"
 "http://www.w3.org/TR/2001/REC-SVG-20010904/DTD/svg10.dtd">
<svg version="1.0" xmlns="http://www.w3.org/2000/svg"
 width="32" height="32" viewBox="0 0 1279.000000 1023.000000"
 preserveAspectRatio="xMidYMid meet">

<g transform="translate(0.000000,1023.000000) scale(0.100000,-0.100000)"
fill="#DFE0E2" stroke="none">
<path d="M2073 10215 c-390 -71 -693 -368 -774 -760 -18 -87 -19 -210 -19
-3492 l0 -3403 5115 0 5115 0 0 3403 c0 3282 -1 3405 -19 3492 -68 329 -302
604 -608 715 -180 65 166 60 -4497 59 -3432 -1 -4255 -3 -4313 -14z m8157
-3820 l0 -2555 -3835 0 -3835 0 0 2555 0 2555 3835 0 3835 0 0 -2555z"/>
<path d="M5235 7867 c-22 -8 -53 -21 -70 -30 -16 -8 -314 -301 -661 -649 -620
-622 -631 -634 -649 -691 -23 -77 -17 -175 14 -242 35 -74 1243 -1281 1316
-1315 75 -34 174 -38 250 -9 53 19 79 41 218 178 191 188 212 223 211 346 -1
134 2 130 -426 560 l-378 380 375 375 c403 402 418 421 431 531 8 68 -15 154
-56 213 -15 23 -91 103 -167 178 -101 100 -152 142 -188 158 -62 27 -166 35
-220 17z"/>
<path d="M7395 7871 c-16 -4 -48 -16 -70 -26 -44 -21 -301 -266 -345 -331 -41
-59 -64 -145 -56 -213 13 -110 28 -129 431 -531 l375 -375 -378 -380 c-428
-430 -425 -426 -426 -560 -1 -123 20 -158 211 -346 139 -137 165 -159 218
-178 76 -29 175 -25 250 9 72 33 1281 1240 1316 1315 20 41 24 66 24 140 0 78
-4 97 -27 140 -19 36 -195 218 -650 672 -513 513 -632 626 -672 644 -53 23
-152 33 -201 20z"/>
<path d="M247 1909 c-92 -22 -173 -88 -216 -179 l-26 -55 0 -280 c0 -235 3
-294 19 -365 111 -511 494 -894 1006 -1006 82 -18 248 -19 5365 -19 5117 0
5283 1 5365 19 511 112 895 496 1006 1006 16 71 19 130 19 365 l0 280 -26 55
c-33 70 -89 126 -159 159 l-55 26 -2460 0 -2460 0 -7 -63 c-24 -221 -151 -409
-338 -501 -146 -72 -151 -72 -946 -69 -692 3 -700 3 -764 25 -99 34 -186 90
-270 173 -115 115 -180 243 -196 386 l-7 54 -2406 -1 c-1361 -1 -2422 -5
-2444 -10z"/>
</g>
</svg>
