<svg width="406" height="108" viewBox="0 0 406 108" fill="none" xmlns="http://www.w3.org/2000/svg">
<g clip-path="url(#clip0_103:1)">
<path d="M129.357 58.61L140.767 78.21H151.407L138.387 57.49C144.267 55.67 148.817 52.31 148.817 43.98C148.839 41.9261 148.382 39.8953 147.483 38.0484C146.584 36.2016 145.267 34.5896 143.637 33.34C140.627 31.03 136.567 29.91 131.457 29.91H115.917V78.21H125.017V58.61H129.357ZM129.707 51.47H124.947V37.05H129.707C132.647 37.05 134.887 37.26 136.637 38.59C137.56 39.2064 138.305 40.0549 138.796 41.0501C139.288 42.0453 139.509 43.1523 139.437 44.26C139.509 45.3677 139.288 46.4747 138.796 47.4699C138.305 48.4651 137.56 49.3136 136.637 49.93C134.887 51.26 132.647 51.47 129.707 51.47ZM161.417 64.14H186.337C186.337 64.14 186.477 61.34 186.477 59.59C186.477 50.56 180.177 43.7 169.747 43.7C160.087 43.7 152.177 50.98 152.177 61.83C152.177 72.75 159.737 78.98 169.957 78.98C178.217 78.98 183.327 75.48 185.217 73.52L181.717 68.69C178.769 70.9045 175.184 72.1075 171.497 72.12C166.387 72.12 162.257 69.53 161.417 64.14ZM169.677 50.35C175.977 50.35 177.377 54.62 177.517 58.33H161.277C161.557 54.06 164.357 50.35 169.677 50.35ZM234.567 59.24V78.21H243.527V57.77C243.527 50 241.077 43.7 232.187 43.7C229.918 43.6422 227.678 44.2131 225.713 45.3497C223.749 46.4863 222.137 48.1442 221.057 50.14C219.447 45.66 216.507 43.7 211.607 43.7C207.197 43.7 203.067 46.29 201.527 49.44H201.317L201.387 44.33H192.427V78.21H201.387V60.71C201.387 55.39 203.417 51.05 208.037 51.05C212.307 51.05 213.497 54.55 213.497 59.17V78.21H222.457V60.71C222.457 54.9 224.767 51.05 229.247 51.05C233.657 51.05 234.567 55.11 234.567 59.24ZM256.337 38.94C259.487 38.94 261.727 36.91 261.727 33.97C261.727 31.1 259.487 29 256.337 29C253.187 29 250.947 31.1 250.947 33.97C250.947 36.91 253.187 38.94 256.337 38.94ZM251.857 44.33V78.21H260.817V44.33H251.857ZM279.787 65.05V51.33H287.627V44.4H279.787V34.74H270.897V44.4H265.857V51.33H270.897V67.01C270.897 75.83 273.767 78.98 280.697 78.98C283.03 78.9928 285.349 78.6142 287.557 77.86L287.067 70.93C286.034 71.3 284.944 71.4894 283.847 71.49C280.697 71.49 279.787 70.23 279.787 65.05ZM293.437 29.91V78.21H311.077C315.697 78.21 319.967 77.44 322.977 75.55C324.812 74.3471 326.305 72.6902 327.311 70.74C328.317 68.7898 328.801 66.6127 328.717 64.42C328.717 58.26 324.587 54.2 318.357 52.8V52.66C321.507 51.4 325.847 47.97 325.847 42.09C325.847 36.56 323.397 33.62 319.617 31.8C316.467 30.26 312.827 29.91 308.907 29.91H293.437ZM308.207 50.07H302.537V37.05H308.627C313.317 37.05 316.607 39.08 316.607 43.28C316.607 46.15 315.627 47.83 313.947 48.88C312.477 49.79 310.727 50.07 308.207 50.07ZM310.377 71.07H302.537V56.72H309.957C312.757 56.72 314.647 57 316.467 58.26C317.42 58.8771 318.198 59.7296 318.725 60.7351C319.252 61.7406 319.511 62.8651 319.477 64C319.534 65.101 319.322 66.1993 318.858 67.1997C318.395 68.2 317.694 69.072 316.817 69.74C314.927 71 312.687 71.07 310.377 71.07ZM342.087 64.14H367.007C367.007 64.14 367.147 61.34 367.147 59.59C367.147 50.56 360.847 43.7 350.417 43.7C340.757 43.7 332.847 50.98 332.847 61.83C332.847 72.75 340.407 78.98 350.627 78.98C358.887 78.98 363.997 75.48 365.887 73.52L362.387 68.69C359.439 70.9045 355.854 72.1075 352.167 72.12C347.057 72.12 342.927 69.53 342.087 64.14ZM350.347 50.35C356.647 50.35 358.047 54.62 358.187 58.33H341.947C342.227 54.06 345.027 50.35 350.347 50.35ZM380.447 64.14H405.367C405.367 64.14 405.507 61.34 405.507 59.59C405.507 50.56 399.207 43.7 388.777 43.7C379.117 43.7 371.207 50.98 371.207 61.83C371.207 72.75 378.767 78.98 388.987 78.98C397.247 78.98 402.357 75.48 404.247 73.52L400.747 68.69C397.799 70.9045 394.214 72.1075 390.527 72.12C385.417 72.12 381.287 69.53 380.447 64.14ZM388.707 50.35C395.007 50.35 396.407 54.62 396.547 58.33H380.307C380.587 54.06 383.387 50.35 388.707 50.35Z" fill="#1160F7"/>
<path d="M0.0230003 29.822V77.836C0.0203021 78.8627 0.290571 79.8717 0.806123 80.7596C1.32167 81.6475 2.06398 82.3824 2.957 82.889L44.545 106.872C45.4286 107.387 46.4329 107.658 47.4555 107.658C48.4781 107.658 49.4824 107.387 50.366 106.872L91.953 82.889C92.8431 82.3786 93.5833 81.643 94.0991 80.7561C94.615 79.8691 94.8885 78.8621 94.892 77.836V29.822C94.8947 28.7953 94.6244 27.7863 94.1089 26.8984C93.5933 26.0105 92.851 25.2756 91.958 24.769L50.366 0.786016C49.4824 0.271169 48.4781 -9.15527e-05 47.4555 -9.15527e-05C46.4329 -9.15527e-05 45.4286 0.271169 44.545 0.786016L2.957 24.769C2.0607 25.2718 1.31568 26.0059 0.79963 26.8947C0.283578 27.7834 0.0153812 28.7943 0.0230003 29.822Z" fill="#1160F7"/>
<path opacity="0.2" d="M91.954 24.769L50.367 0.786016C49.4834 0.271169 48.4791 -9.15527e-05 47.4565 -9.15527e-05C46.4339 -9.15527e-05 45.4296 0.271169 44.546 0.786016L2.958 24.769C2.06882 25.28 1.32966 26.0159 0.814688 26.9028C0.299714 27.7897 0.0270316 28.7965 0.0239992 29.822V30.522C0.021301 29.4953 0.29157 28.4863 0.807122 27.5984C1.32267 26.7105 2.06498 25.9756 2.958 25.469L44.545 1.46002C45.4286 0.945169 46.4329 0.673908 47.4555 0.673908C48.4781 0.673908 49.4824 0.945169 50.366 1.46002L91.954 25.468C92.8435 25.9781 93.5833 26.713 94.0992 27.5992C94.615 28.4854 94.8888 29.4916 94.893 30.517V29.817C94.8844 28.7927 94.6088 27.7883 94.0934 26.903C93.5779 26.0178 92.8406 25.2822 91.954 24.769Z" fill="#1160F7"/>
<path opacity="0.2" d="M2.934 82.889L44.521 106.872C45.4046 107.387 46.4089 107.658 47.4315 107.658C48.4541 107.658 49.4584 107.387 50.342 106.872L91.93 82.889C92.8192 82.378 93.5583 81.6421 94.0733 80.7552C94.5883 79.8683 94.861 78.8616 94.864 77.836V77.114C94.8667 78.1407 94.5964 79.1497 94.0809 80.0376C93.5653 80.9255 92.823 81.6604 91.93 82.167L50.343 106.15C49.4594 106.665 48.4551 106.936 47.4325 106.936C46.4099 106.936 45.4056 106.665 44.522 106.15L2.934 82.166C2.04497 81.6551 1.3059 80.9194 0.790938 80.0326C0.275973 79.1459 0.00320759 78.1394 0 77.114V77.814C0.0101206 78.8411 0.285589 79.8481 0.79967 80.7373C1.31375 81.6265 2.04898 82.3677 2.934 82.889Z" fill="#1160F7"/>
<path d="M22.213 59.207C22.209 57.2435 22.6136 55.3007 23.401 53.502C24.1674 51.7359 25.2753 50.1386 26.661 48.802C28.0567 47.4593 29.6826 46.3788 31.461 45.612C33.2937 44.8266 35.2671 44.4227 37.261 44.425H39.496V51.388H37.253C36.2233 51.3819 35.2051 51.6046 34.272 52.04C33.3529 52.4553 32.5294 53.0558 31.853 53.804C31.1774 54.5488 30.6269 55.3981 30.223 56.319C29.8062 57.2161 29.5915 58.1938 29.594 59.183V74.203H22.237L22.213 59.207Z" fill="white"/>
<path fill-rule="evenodd" clip-rule="evenodd" d="M71.485 53.107C70.7216 51.3039 69.6143 49.6668 68.225 48.287C66.8197 46.8961 65.1594 45.7892 63.335 45.027C61.4222 44.2389 59.3728 43.8355 57.304 43.84H49.761V29.125H42.426V58.976C42.4056 61.0114 42.7936 63.0302 43.567 64.913C44.67 67.6546 46.5672 70.004 49.0151 71.6595C51.463 73.315 54.3498 74.2011 57.305 74.204C59.3749 74.2197 61.4264 73.8159 63.336 73.017C66.1094 71.869 68.4772 69.9197 70.1364 67.4183C71.7956 64.917 72.6708 61.9775 72.65 58.976C72.6851 56.9589 72.2879 54.9577 71.485 53.107ZM51.785 64.563C51.1888 63.8422 50.7094 63.0323 50.364 62.163C50.3379 62.1205 50.3218 62.0727 50.317 62.023L61.703 52.123C62.2 52.4532 62.6539 52.8443 63.054 53.287C63.307 53.5659 63.5408 53.8616 63.754 54.172L51.785 64.563ZM49.785 50.802H57.329C57.6795 50.8017 58.0296 50.8247 58.377 50.871L49.785 58.346V50.802ZM64.664 62.165C64.2906 63.1437 63.7378 64.0441 63.034 64.82C62.3303 65.589 61.484 66.2139 60.542 66.66C59.5367 67.1278 58.4375 67.3587 57.329 67.335C56.3275 67.3354 55.3395 67.1044 54.442 66.66L54.255 66.567L65.055 57.16C65.1952 57.7707 65.2656 58.3954 65.265 59.022C65.2592 60.0977 65.0555 61.1631 64.664 62.165Z" fill="white"/>
<g opacity="0.2">
<path opacity="0.2" d="M37.233 44.445C35.231 44.4296 33.2481 44.834 31.412 45.632C29.6336 46.3989 28.0077 47.4794 26.612 48.822C25.2332 50.1568 24.1261 51.7461 23.352 53.502C22.5649 55.3007 22.1606 57.2436 22.165 59.207V59.929C22.1607 57.9656 22.5649 56.0228 23.352 54.224C24.1183 52.4578 25.2262 50.8605 26.612 49.524C28.0076 48.181 29.6335 47.1001 31.412 46.333C33.2515 45.5457 35.2321 45.1418 37.233 45.146H39.468V44.421L37.233 44.445Z" fill="white"/>
<path opacity="0.2" d="M49.757 44.561H57.301C59.3709 44.5453 61.4225 44.9491 63.332 45.748C65.1642 46.4957 66.8271 47.6044 68.222 49.008C69.6041 50.3938 70.7103 52.0294 71.482 53.828C72.2285 55.606 72.6238 57.5118 72.646 59.44V59.021C72.6596 56.9888 72.2552 54.9754 71.458 53.106C70.6947 51.3029 69.5874 49.6657 68.198 48.286C66.7927 46.8951 65.1324 45.7882 63.308 45.026C61.3952 44.2378 59.3458 43.8345 57.277 43.839H49.738L49.757 44.561Z" fill="white"/>
<path opacity="0.2" d="M49.784 29.146H42.426V29.845H49.784V29.146Z" fill="white"/>
</g>
<g opacity="0.2">
<path opacity="0.2" d="M29.572 73.528H22.214V74.227H29.572V73.528Z" fill="white"/>
<path opacity="0.2" d="M63.336 72.339C61.4232 73.1273 59.3738 73.5306 57.305 73.526C55.3096 73.5441 53.3329 73.1396 51.505 72.339C47.8925 70.7935 45.0382 67.8816 43.565 64.239C42.7939 62.3555 42.406 60.3372 42.424 58.302V59.002C42.4172 61.0361 42.8047 63.0523 43.565 64.939C45.0384 68.5815 47.8927 71.4933 51.505 73.039C53.3377 73.8244 55.3111 74.2283 57.305 74.226C59.3749 74.2418 61.4265 73.838 63.336 73.039C66.1094 71.891 68.4772 69.9417 70.1364 67.4403C71.7957 64.939 72.6708 61.9995 72.65 58.998V58.698C72.5954 61.632 71.6848 64.486 70.0301 66.9094C68.3754 69.3329 66.0487 71.22 63.336 72.339Z" fill="white"/>
</g>
</g>
<defs>
<clipPath id="clip0_103:1">
<rect width="405.507" height="107.659" fill="white"/>
</clipPath>
</defs>
</svg>
